<svg fill="none" height="26" viewBox="0 0 211 26" width="211" xmlns="http://www.w3.org/2000/svg"><g fill="#202020"><path d="m22.1108 7.00436h-22.1108c0-3.83257 3.3586-7.00436 7.27697-7.00436h22.11083c0 3.83258-3.3586 7.00436-7.277 7.00436z"/><path d="m8.58196 24.7433 1.51284-10.4708c.6319-4.37345 4.3791-7.61831 8.7976-7.61831l-2.0239 13.50421c-.6879 3.1727-4.303 5.2725-8.28654 4.5849z"/><path d="m34.6616 8.0482.3835-2.28196h10.7514l-.3835 2.28196h-4.0078l-1.7898 10.8089h-2.7358l1.7898-10.8089zm10.6811 10.8089 1.6363-9.81813h2.7231l-1.6364 9.81813zm3.2791-11.09654c-.4048 0-.7393-.13424-1.0035-.4027-.26-.27273-.3665-.59659-.3196-.97159.0468-.38353.2301-.70739.5497-.97159.3196-.26847.6818-.4027 1.0866-.4027s.7351.13423.9908.4027c.2557.2642.3622.58806.3196.97159-.0426.375-.2237.69886-.5433.97159-.3154.26846-.6755.4027-1.0803.4027zm5.4348 14.98294c-.8863 0-1.6257-.1214-2.218-.3643-.5881-.2387-1.0355-.5647-1.3423-.978-.3026-.4134-.4688-.8779-.4986-1.3935l2.5824-.3388c.0469.2003.1363.3857.2684.5561.1364.1705.3303.3069.5817.4091.2557.1023.586.1534.9908.1534.5923 0 1.1079-.1448 1.5469-.4346.4389-.2855.7095-.7649.8118-1.4382l.294-1.7962h-.1151c-.1619.2727-.3835.5306-.6647.7734-.277.2429-.6158.4411-1.0164.5945-.3963.1534-.8544.2301-1.3743.2301-.7414 0-1.3849-.1704-1.9304-.5113-.5412-.3452-.9332-.8715-1.1761-1.5789-.2386-.7116-.2685-1.6108-.0895-2.6974.1875-1.1122.5242-2.0412 1.01-2.787.4857-.7457 1.061-1.30393 1.7258-1.67467s1.3572-.55611 2.0774-.55611c.5497 0 .9929.09375 1.3296.28125.3409.18324.6029.41336.7862.69035.1832.27268.3132.54118.3899.80538h.1087l.2684-1.64913h2.7039l-1.6492 9.91403c-.1321.8395-.4496 1.5384-.9524 2.0966-.4986.5625-1.1314.9844-1.8984 1.2656-.7671.2856-1.6172.4283-2.5505.4283zm1.0228-6.0724c.4346 0 .8245-.1087 1.1697-.326.3494-.2216.6413-.537.8757-.946.2344-.4134.3985-.9077.4922-1.483.0938-.5753.0916-1.0739-.0064-1.4957-.0937-.4262-.277-.7564-.5497-.9908-.2685-.2344-.6222-.3516-1.0611-.3516-.4517 0-.848.1215-1.1889.3644-.3409.2386-.6243.571-.8501.9971-.2216.4262-.3772.9184-.4667 1.4766-.0937.5668-.098 1.0568-.0127 1.4702.0894.4091.2663.7265.5305.9524.2642.2216.62.3324 1.0675.3324zm11.0071 2.3778c-1.0057 0-1.8388-.2045-2.4993-.6136-.6605-.4134-1.125-.9972-1.3935-1.7514-.2642-.7586-.3089-1.6556-.1342-2.6911.1704-1.0099.5135-1.8963 1.0291-2.6591.5199-.7628 1.1719-1.35723 1.956-1.78337s1.6576-.63921 2.6207-.63921c.6477 0 1.2337.10441 1.7578.31321.5284.20455.9673.51563 1.3168.93327.3494.4133.588.9311.7159 1.5532.1321.6222.13 1.3509-.0064 2.1861l-.1215.7479h-8.284l.262-1.6875h5.7273c.0639-.3921.0384-.7394-.0767-1.0419-.1151-.3026-.3068-.5391-.5753-.7095-.2685-.1747-.5987-.2621-.9908-.2621-.4005 0-.7755.098-1.125.294-.3494.1961-.6434.4539-.8821.7735-.2343.3153-.3856.6583-.4538 1.0291l-.3004 1.6747c-.0852.5156-.0682.9439.0511 1.2848.1236.3409.3367.5966.6392.767.3026.1662.6861.2493 1.1506.2493.3025 0 .5859-.0426.8501-.1278.2685-.0852.5071-.2109.7159-.3771.2089-.1705.3793-.3814.5114-.6328l2.4865.1661c-.2301.6052-.5795 1.1336-1.0483 1.5853-.4687.4474-1.0334.7968-1.6939 1.0483-.6562.2471-1.3913.3707-2.2052.3707zm6.3265-.1918 1.6364-9.81813h2.6399l-.2877 1.71303h.1023c.2813-.6093.6584-1.06957 1.1314-1.38065.4773-.31534.9908-.47301 1.5405-.47301.1363 0 .2791.00852.4282.02557.1535.01278.2898.03409.4091.06392l-.4091 2.42257c-.1193-.0426-.2897-.0767-.5113-.1023-.2173-.0298-.424-.0447-.62-.0447-.3964 0-.765.0874-1.1059.2621-.3409.1704-.6285.4091-.8629.7159-.2301.3068-.3814.6605-.4538 1.0611l-.9141 5.5546zm7.4164 0 2.1733-13.09086h5.2414c.9631 0 1.7429.14275 2.3395.42826.6009.28552 1.0206.68182 1.2593 1.18893.2386.50284.3025 1.08238.1917 1.73863-.0895.51137-.2706.95884-.5433 1.34234-.2685.3835-.6009.6989-.9972.946-.3963.2472-.8267.4219-1.2912.5242l-.0255.1278c.4943.0213.9396.1619 1.3359.4219.3963.2557.6925.6179.8885 1.0866.196.4688.2408 1.0249.1342 1.6683-.115.6947-.3899 1.3147-.8245 1.8601-.4347.5412-1.0142.9695-1.7387 1.2848-.7201.3154-1.5703.473-2.5504.473zm3.1512-2.2627h2.2564c.7671 0 1.353-.1492 1.7579-.4475.4048-.2983.6477-.6925.7286-1.1825.0554-.3622.0192-.6818-.1086-.9588-.1236-.277-.3345-.4943-.6328-.652-.2941-.1577-.6669-.2365-1.1186-.2365h-2.314zm.8885-5.3502h2.0519c.375 0 .7223-.066 1.0419-.1981.3239-.1364.5902-.3282.799-.5753.2131-.2514.3473-.5476.4027-.88851.0767-.47727-.0298-.85867-.3196-1.14418-.2855-.28977-.733-.43466-1.3423-.43466h-2.0966zm12.2584 7.8047c-1.0057 0-1.8388-.2045-2.4993-.6136-.6605-.4134-1.125-.9972-1.3935-1.7514-.2642-.7586-.3089-1.6556-.1342-2.6911.1705-1.0099.5135-1.8963 1.0291-2.6591.5199-.7628 1.1719-1.35723 1.956-1.78337s1.6577-.63921 2.6207-.63921c.6477 0 1.2337.10441 1.7578.31321.5284.20455.9669.51563 1.3169.93327.349.4133.588.9311.716 1.5532.132.6222.13 1.3509-.007 2.1861l-.121.7479h-8.2841l.262-1.6875h5.7273c.0639-.3921.0384-.7394-.0767-1.0419-.115-.3026-.3068-.5391-.5753-.7095-.2684-.1747-.5987-.2621-.9907-.2621-.4006 0-.7756.098-1.125.294-.3495.1961-.6435.4539-.8821.7735-.2344.3153-.3857.6583-.4539 1.0291l-.3004 1.6747c-.0852.5156-.0682.9439.0511 1.2848.1236.3409.3367.5966.6392.767.3026.1662.6861.2493 1.1506.2493.3026 0 .5859-.0426.8502-.1278.2684-.0852.5071-.2109.7159-.3771.2088-.1705.3792-.3814.5113-.6328l2.4866.1661c-.23.6052-.58 1.1336-1.048 1.5853-.4691.4474-1.0337.7968-1.6943 1.0483-.6562.2471-1.3913.3707-2.2052.3707zm10.7755 0c-1.006 0-1.839-.2045-2.499-.6136-.661-.4134-1.125-.9972-1.394-1.7514-.264-.7586-.309-1.6556-.134-2.6911.17-1.0099.513-1.8963 1.029-2.6591.52-.7628 1.172-1.35723 1.956-1.78337s1.658-.63921 2.621-.63921c.647 0 1.233.10441 1.758.31321.528.20455.967.51563 1.316.93327.35.4133.588.9311.716 1.5532.132.6222.13 1.3509-.006 2.1861l-.122.7479h-8.284l.262-1.6875h5.728c.064-.3921.038-.7394-.077-1.0419-.115-.3026-.307-.5391-.575-.7095-.269-.1747-.599-.2621-.991-.2621-.401 0-.776.098-1.125.294-.35.1961-.644.4539-.882.7735-.235.3153-.386.6583-.454 1.0291l-.301 1.6747c-.085.5156-.068.9439.052 1.2848.123.3409.336.5966.639.767.302.1662.686.2493 1.15.2493.303 0 .586-.0426.851-.1278.268-.0852.507-.2109.715-.3771.209-.1705.38-.3814.512-.6328l2.486.1661c-.23.6052-.579 1.1336-1.048 1.5853-.469.4474-1.033.7968-1.694 1.0483-.656.2471-1.391.3707-2.205.3707zm13.185-10.00993-.339 2.04543h-5.919l.345-2.04543zm-4.187-2.35228h2.723l-1.521 9.15341c-.043.2514-.036.4474.019.5881.056.1363.147.2322.275.2876.132.0554.29.0831.473.0831.128 0 .258-.0106.39-.032.132-.0255.232-.0447.3-.0575l.103 2.0263c-.154.0469-.36.098-.62.1534-.256.0554-.559.0895-.908.1023-.665.0255-1.227-.0618-1.688-.2621-.46-.2045-.79-.5177-.99-.9396-.201-.4219-.243-.9524-.128-1.5916zm9.432-.92045-2.174 13.09086h-2.723l2.174-13.09086zm4.457 13.28266c-1.006 0-1.839-.2045-2.5-.6136-.66-.4134-1.125-.9972-1.393-1.7514-.264-.7586-.309-1.6556-.134-2.6911.17-1.0099.513-1.8963 1.029-2.6591.52-.7628 1.172-1.35723 1.956-1.78337s1.657-.63921 2.62-.63921c.648 0 1.234.10441 1.758.31321.529.20455.968.51563 1.317.93327.349.4133.588.9311.716 1.5532.132.6222.13 1.3509-.006 2.1861l-.122.7479h-8.284l.262-1.6875h5.727c.064-.3921.039-.7394-.076-1.0419-.115-.3026-.307-.5391-.576-.7095-.268-.1747-.598-.2621-.99-.2621-.401 0-.776.098-1.125.294-.35.1961-.644.4539-.883.7735-.234.3153-.385.6583-.453 1.0291l-.301 1.6747c-.085.5156-.068.9439.051 1.2848.124.3409.337.5966.64.767.302.1662.686.2493 1.15.2493.303 0 .586-.0426.85-.1278.269-.0852.507-.2109.716-.3771.209-.1705.379-.3814.512-.6328l2.486.1661c-.23.6052-.58 1.1336-1.048 1.5853-.469.4474-1.034.7968-1.694 1.0483-.656.2471-1.391.3707-2.205.3707zm15.248-.1918h-4.705l2.174-13.09086h4.615c1.316 0 2.409.26846 3.279.8054.873.53693 1.489 1.3061 1.847 2.30752.358.99716.422 2.18824.192 3.57314-.222 1.3381-.663 2.4865-1.323 3.4453-.661.9546-1.507 1.6875-2.538 2.1989-1.031.5071-2.212.7606-3.541.7606zm-1.541-2.3714h1.701c.822 0 1.542-.1534 2.16-.4602.622-.3068 1.132-.7799 1.528-1.4191.4-.6392.684-1.4573.85-2.4545.158-.946.147-1.7131-.032-2.30115-.175-.59232-.513-1.02485-1.016-1.29758-.503-.27699-1.164-.41548-1.982-.41548h-1.822zm14.33 2.5632c-1.006 0-1.839-.2045-2.5-.6136-.66-.4134-1.125-.9972-1.393-1.7514-.264-.7586-.309-1.6556-.134-2.6911.17-1.0099.513-1.8963 1.029-2.6591.52-.7628 1.172-1.35723 1.956-1.78337s1.657-.63921 2.621-.63921c.647 0 1.233.10441 1.757.31321.529.20455.968.51563 1.317.93327.35.4133.588.9311.716 1.5532.132.6222.13 1.3509-.006 2.1861l-.122.7479h-8.284l.262-1.6875h5.727c.064-.3921.039-.7394-.076-1.0419-.115-.3026-.307-.5391-.576-.7095-.268-.1747-.598-.2621-.99-.2621-.401 0-.776.098-1.125.294-.35.1961-.644.4539-.882.7735-.235.3153-.386.6583-.454 1.0291l-.301 1.6747c-.085.5156-.068.9439.051 1.2848.124.3409.337.5966.64.767.302.1662.686.2493 1.15.2493.303 0 .586-.0426.85-.1278.269-.0852.507-.2109.716-.3771.209-.1705.38-.3814.512-.6328l2.486.1661c-.23.6052-.579 1.1336-1.048 1.5853-.469.4474-1.034.7968-1.694 1.0483-.656.2471-1.391.3707-2.205.3707zm16.852-10.00993-5.069 9.81813h-3.068l-1.796-9.81813h2.774l.87 7.02483h.102l3.202-7.02483zm-.191 9.81813 2.173-13.09086h2.768l-.895 5.40126h5.618l.895-5.40126h2.762l-2.174 13.09086h-2.761l.895-5.4076h-5.619l-.895 5.4076zm20.371-4.1804.94-5.63773h2.723l-1.637 9.81813h-2.614l.294-1.7833h-.102c-.303.5753-.744 1.0376-1.323 1.387-.58.3495-1.238.5242-1.976.5242-.656 0-1.21-.1492-1.662-.4475-.447-.2983-.764-.7223-.952-1.272-.187-.5497-.219-1.2081-.096-1.9751l1.048-6.25143h2.723l-.958 5.76563c-.09.5795-.009 1.0376.243 1.3743.251.3366.635.505 1.15.505.328 0 .646-.0746.953-.2238.311-.1534.579-.3792.805-.6775s.373-.6669.441-1.1059zm4.256 4.1804 2.173-13.09086h2.723l-.806 4.92186h.077c.162-.2642.379-.5327.652-.80538.277-.27699.616-.50711 1.016-.69035.401-.1875.876-.28125 1.426-.28125.716 0 1.344.1875 1.886.5625.541.37074.931.93108 1.169 1.68108.239.7458.264 1.6811.077 2.8061-.179 1.0952-.509 2.0199-.991 2.7742-.477.75-1.05 1.3189-1.719 1.7067-.665.3835-1.37.5752-2.116.5752-.528 0-.963-.0873-1.304-.262-.337-.1747-.599-.3942-.786-.6584-.188-.2685-.322-.5391-.403-.8118h-.134l-.256 1.5724zm3.483-4.909c-.094.5838-.096 1.093-.006 1.5277.094.4346.273.7734.537 1.0163.268.2386.62.3579 1.054.3579.448 0 .844-.1214 1.189-.3643.35-.2472.64-.5881.87-1.0227.23-.4389.392-.9439.485-1.5149.09-.5668.092-1.0654.007-1.4958s-.26-.767-.524-1.0099c-.265-.2429-.622-.3644-1.074-.3644-.439 0-.833.1172-1.183.3516-.345.2344-.635.5668-.869.9971-.23.4304-.392.9375-.486 1.5214z"/></g></svg>