<svg width="16" height="16" viewBox="0 0 16 16" fill="none" xmlns="http://www.w3.org/2000/svg">
<path d="M7.77518 3.27493L9.02518 2.02493C9.3502 1.69991 9.73606 1.44209 10.1607 1.26619C10.5854 1.09029 11.0405 0.999756 11.5002 0.999756C11.9598 0.999756 12.415 1.09029 12.8396 1.26619C13.2643 1.44209 13.6502 1.69991 13.9752 2.02493C14.3002 2.34996 14.558 2.73581 14.7339 3.16047C14.9098 3.58514 15.0004 4.04028 15.0004 4.49993C15.0004 4.95958 14.9098 5.41473 14.7339 5.8394C14.558 6.26406 14.3002 6.64991 13.9752 6.97493L11.4752 9.47493C11.1502 9.79998 10.7643 10.0578 10.3397 10.2337C9.91499 10.4096 9.45984 10.5002 9.00018 10.5002C8.54052 10.5002 8.08537 10.4096 7.6607 10.2337C7.23604 10.0578 6.85019 9.79998 6.52518 9.47493C6.39277 9.33267 6.32067 9.14462 6.32402 8.9503C6.32738 8.75599 6.40594 8.57054 6.54318 8.43293C6.68078 8.29569 6.86623 8.21714 7.06055 8.21378C7.25486 8.21042 7.44292 8.28253 7.58518 8.41493C7.77079 8.60113 7.99132 8.74886 8.23414 8.84965C8.47695 8.95045 8.73727 9.00234 9.00018 9.00234C9.26308 9.00234 9.5234 8.95045 9.76622 8.84965C10.009 8.74886 10.2296 8.60113 10.4152 8.41493L12.9152 5.91493C13.2722 5.53599 13.4676 5.03286 13.4598 4.51228C13.452 3.9917 13.2418 3.49461 12.8737 3.12646C12.5055 2.75831 12.0084 2.54806 11.4878 2.54031C10.9673 2.53256 10.4641 2.72791 10.0852 3.08493L8.83518 4.33493C8.69292 4.46734 8.50486 4.53945 8.31055 4.53609C8.11623 4.53273 7.93078 4.45418 7.79318 4.31693C7.65594 4.17933 7.57738 3.99388 7.57402 3.79956C7.57067 3.60525 7.64277 3.4172 7.77518 3.27493ZM3.08518 12.9149C3.27079 13.1011 3.49132 13.2489 3.73414 13.3497C3.97695 13.4505 4.23727 13.5023 4.50018 13.5023C4.76308 13.5023 5.0234 13.4505 5.26622 13.3497C5.50903 13.2489 5.72957 13.1011 5.91518 12.9149L7.16518 11.6649C7.30744 11.5325 7.49549 11.4604 7.68981 11.4638C7.88413 11.4671 8.06957 11.5457 8.20718 11.6829C8.34442 11.8205 8.42298 12.006 8.42633 12.2003C8.42969 12.3946 8.35759 12.5827 8.22518 12.7249L6.97518 13.9749C6.65016 14.3 6.2643 14.5578 5.83964 14.7337C5.41498 14.9096 4.95983 15.0001 4.50018 15.0001C3.57187 15.0001 2.68159 14.6313 2.02518 13.9749C1.36877 13.3185 1 12.4282 1 11.4999C1 10.5716 1.36877 9.68134 2.02518 9.02493L4.52518 6.52493C4.85019 6.19989 5.23604 5.94205 5.6607 5.76614C6.08537 5.59022 6.54052 5.49968 7.00018 5.49968C7.45984 5.49968 7.91499 5.59022 8.33965 5.76614C8.76432 5.94205 9.15017 6.19989 9.47518 6.52493C9.60759 6.6672 9.67969 6.85525 9.67633 7.04956C9.67298 7.24388 9.59442 7.42933 9.45718 7.56693C9.31957 7.70418 9.13413 7.78273 8.93981 7.78609C8.74549 7.78945 8.55744 7.71734 8.41518 7.58493C8.22957 7.39874 8.00903 7.25101 7.76622 7.15022C7.5234 7.04942 7.26308 6.99753 7.00018 6.99753C6.73727 6.99753 6.47695 7.04942 6.23414 7.15022C5.99132 7.25101 5.77079 7.39874 5.58518 7.58493L3.08518 10.0849C2.89899 10.2705 2.75126 10.4911 2.65046 10.7339C2.54966 10.9767 2.49777 11.237 2.49777 11.4999C2.49777 11.7628 2.54966 12.0232 2.65046 12.266C2.75126 12.5088 2.89899 12.7293 3.08518 12.9149Z" fill="#ffef5c"/>
</svg>
