<svg width="137" height="26" viewBox="0 0 137 26" fill="none" xmlns="http://www.w3.org/2000/svg">
<path d="M22.1108 7.07046H0C0 3.28 3.3586 0.143066 7.27697 0.143066H29.3878C29.3878 3.93353 26.0292 7.07046 22.1108 7.07046Z" fill="#EDEDED"/>
<path d="M8.58196 24.6147L10.0836 14.3354C10.7216 9.96827 14.4761 6.7243 18.8924 6.7243L16.8685 20.0801C16.1806 23.2179 12.5655 25.2947 8.58196 24.6147Z" fill="#EDEDED"/>
<path d="M34.6616 8.19105L35.0451 5.90909H45.7965L45.413 8.19105H41.4052L39.6154 19H36.8796L38.6694 8.19105H34.6616ZM45.3427 19L46.979 9.18182H49.7021L48.0657 19H45.3427ZM48.6218 7.90341C48.217 7.90341 47.8825 7.76918 47.6183 7.50071C47.3583 7.22798 47.2518 6.90412 47.2987 6.52912C47.3455 6.1456 47.5288 5.82173 47.8484 5.55753C48.168 5.28906 48.5302 5.15483 48.935 5.15483C49.3398 5.15483 49.6701 5.28906 49.9258 5.55753C50.1815 5.82173 50.288 6.1456 50.2454 6.52912C50.2028 6.90412 50.0217 7.22798 49.7021 7.50071C49.3867 7.76918 49.0266 7.90341 48.6218 7.90341ZM54.0566 22.8864C53.1703 22.8864 52.4309 22.7649 51.8386 22.522C51.2505 22.2834 50.8031 21.9574 50.4963 21.544C50.1937 21.1307 50.0275 20.6662 49.9977 20.1506L52.5801 19.8118C52.627 20.0121 52.7164 20.1974 52.8485 20.3679C52.9849 20.5384 53.1788 20.6747 53.4302 20.777C53.6859 20.8793 54.0162 20.9304 54.421 20.9304C55.0133 20.9304 55.5289 20.7855 55.9679 20.4957C56.4068 20.2102 56.6774 19.7308 56.7797 19.0575L57.0737 17.2614H56.9586C56.7967 17.5341 56.5751 17.7919 56.2939 18.0348C56.0169 18.2777 55.6781 18.4759 55.2775 18.6293C54.8812 18.7827 54.4231 18.8594 53.9032 18.8594C53.1618 18.8594 52.5183 18.6889 51.9728 18.348C51.4316 18.0028 51.0396 17.4766 50.7967 16.7692C50.5581 16.0575 50.5282 15.1584 50.7072 14.0717C50.8947 12.9595 51.2314 12.0305 51.7172 11.2848C52.2029 10.5391 52.7782 9.98082 53.443 9.61009C54.1078 9.23935 54.8002 9.05398 55.5204 9.05398C56.0701 9.05398 56.5133 9.14773 56.85 9.33523C57.1909 9.51847 57.4529 9.74858 57.6362 10.0256C57.8194 10.2983 57.9494 10.5668 58.0261 10.831H58.1348L58.4032 9.18182H61.1071L59.4579 19.0959C59.3258 19.9354 59.0083 20.6342 58.5055 21.1925C58.0069 21.755 57.3741 22.1768 56.6071 22.4581C55.84 22.7436 54.9899 22.8864 54.0566 22.8864ZM55.0794 16.8139C55.514 16.8139 55.9039 16.7053 56.2491 16.4879C56.5985 16.2663 56.8904 15.951 57.1248 15.5419C57.3592 15.1286 57.5233 14.6342 57.617 14.0589C57.7108 13.4837 57.7086 12.9851 57.6106 12.5632C57.5169 12.1371 57.3336 11.8068 57.0609 11.5724C56.7924 11.3381 56.4387 11.2209 55.9998 11.2209C55.5481 11.2209 55.1518 11.3423 54.8109 11.5852C54.47 11.8239 54.1866 12.1562 53.9608 12.5824C53.7392 13.0085 53.5836 13.5007 53.4941 14.0589C53.4004 14.6257 53.3961 15.1158 53.4814 15.5291C53.5708 15.9382 53.7477 16.2557 54.0119 16.4815C54.2761 16.7031 54.6319 16.8139 55.0794 16.8139ZM66.0865 19.1918C65.0808 19.1918 64.2477 18.9872 63.5872 18.5781C62.9267 18.1648 62.4622 17.581 62.1937 16.8267C61.9295 16.0682 61.8848 15.1712 62.0595 14.1357C62.2299 13.1257 62.573 12.2393 63.0886 11.4766C63.6085 10.7138 64.2605 10.1193 65.0446 9.69318C65.8287 9.26705 66.7022 9.05398 67.6653 9.05398C68.313 9.05398 68.899 9.15838 69.4231 9.36719C69.9515 9.57173 70.3904 9.88281 70.7399 10.3004C71.0893 10.7138 71.3279 11.2315 71.4558 11.8537C71.5879 12.4759 71.5858 13.2045 71.4494 14.0398L71.3279 14.7876H63.0439L63.3059 13.1001H69.0332C69.0971 12.7081 69.0716 12.3608 68.9565 12.0582C68.8414 11.7557 68.6497 11.5192 68.3812 11.3487C68.1127 11.174 67.7825 11.0866 67.3904 11.0866C66.9899 11.0866 66.6149 11.1847 66.2654 11.3807C65.916 11.5767 65.622 11.8345 65.3833 12.1541C65.149 12.4695 64.9977 12.8125 64.9295 13.1832L64.6291 14.858C64.5439 15.3736 64.5609 15.8018 64.6802 16.1428C64.8038 16.4837 65.0169 16.7393 65.3194 16.9098C65.622 17.076 66.0055 17.1591 66.47 17.1591C66.7725 17.1591 67.0559 17.1165 67.3201 17.0312C67.5886 16.946 67.8272 16.8203 68.036 16.6541C68.2449 16.4837 68.4153 16.2727 68.5474 16.0213L71.0339 16.1875C70.8038 16.7926 70.4544 17.321 69.9856 17.7727C69.5169 18.2202 68.9522 18.5696 68.2917 18.821C67.6355 19.0682 66.9004 19.1918 66.0865 19.1918ZM72.413 19L74.0494 9.18182H76.6893L76.4016 10.8949H76.5039C76.7852 10.2855 77.1623 9.82528 77.6353 9.5142C78.1126 9.19886 78.6261 9.04119 79.1758 9.04119C79.3121 9.04119 79.4549 9.04972 79.604 9.06676C79.7575 9.07955 79.8938 9.10085 80.0131 9.13068L79.604 11.5533C79.4847 11.5107 79.3143 11.4766 79.0927 11.451C78.8754 11.4212 78.6687 11.4062 78.4727 11.4062C78.0763 11.4062 77.7077 11.4936 77.3668 11.6683C77.0259 11.8388 76.7383 12.0774 76.5039 12.3842C76.2738 12.6911 76.1225 13.0447 76.0501 13.4453L75.136 19H72.413ZM79.8294 19L82.0027 5.90909H87.2441C88.2072 5.90909 88.987 6.05185 89.5836 6.33736C90.1845 6.62287 90.6042 7.01918 90.8429 7.52628C91.0815 8.02912 91.1454 8.60866 91.0346 9.26491C90.9451 9.77628 90.764 10.2237 90.4913 10.6072C90.2228 10.9908 89.8904 11.3061 89.4941 11.5533C89.0978 11.8004 88.6674 11.9751 88.2029 12.0774L88.1774 12.2053C88.6717 12.2266 89.117 12.3672 89.5133 12.6271C89.9096 12.8828 90.2058 13.245 90.4018 13.7138C90.5978 14.1825 90.6426 14.7386 90.536 15.3821C90.421 16.0767 90.1461 16.6967 89.7115 17.2422C89.2768 17.7834 88.6973 18.2116 87.9728 18.527C87.2527 18.8423 86.4025 19 85.4224 19H79.8294ZM82.9806 16.7372H85.237C86.0041 16.7372 86.59 16.5881 86.9949 16.2898C87.3997 15.9915 87.6426 15.5973 87.7235 15.1072C87.7789 14.745 87.7427 14.4254 87.6149 14.1484C87.4913 13.8714 87.2804 13.6541 86.9821 13.4964C86.688 13.3388 86.3152 13.2599 85.8635 13.2599H83.5495L82.9806 16.7372ZM83.8691 11.3871H85.921C86.296 11.3871 86.6433 11.321 86.9629 11.1889C87.2868 11.0526 87.5531 10.8608 87.7619 10.6136C87.975 10.3622 88.1092 10.0661 88.1646 9.72514C88.2413 9.24787 88.1348 8.86648 87.845 8.58097C87.5595 8.29119 87.112 8.14631 86.5027 8.14631H84.4061L83.8691 11.3871ZM96.1275 19.1918C95.1218 19.1918 94.2887 18.9872 93.6282 18.5781C92.9677 18.1648 92.5032 17.581 92.2347 16.8267C91.9705 16.0682 91.9258 15.1712 92.1005 14.1357C92.271 13.1257 92.614 12.2393 93.1296 11.4766C93.6495 10.7138 94.3015 10.1193 95.0856 9.69318C95.8697 9.26705 96.7433 9.05398 97.7063 9.05398C98.354 9.05398 98.94 9.15838 99.4641 9.36719C99.9925 9.57173 100.431 9.88281 100.781 10.3004C101.13 10.7138 101.369 11.2315 101.497 11.8537C101.629 12.4759 101.627 13.2045 101.49 14.0398L101.369 14.7876H93.0849L93.3469 13.1001H99.0742C99.1381 12.7081 99.1126 12.3608 98.9975 12.0582C98.8825 11.7557 98.6907 11.5192 98.4222 11.3487C98.1538 11.174 97.8235 11.0866 97.4315 11.0866C97.0309 11.0866 96.6559 11.1847 96.3065 11.3807C95.957 11.5767 95.663 11.8345 95.4244 12.1541C95.19 12.4695 95.0387 12.8125 94.9705 13.1832L94.6701 14.858C94.5849 15.3736 94.6019 15.8018 94.7212 16.1428C94.8448 16.4837 95.0579 16.7393 95.3604 16.9098C95.663 17.076 96.0465 17.1591 96.511 17.1591C96.8136 17.1591 97.0969 17.1165 97.3612 17.0312C97.6296 16.946 97.8683 16.8203 98.0771 16.6541C98.2859 16.4837 98.4563 16.2727 98.5884 16.0213L101.075 16.1875C100.845 16.7926 100.495 17.321 100.027 17.7727C99.5579 18.2202 98.9933 18.5696 98.3327 18.821C97.6765 19.0682 96.9414 19.1918 96.1275 19.1918ZM106.903 19.1918C105.897 19.1918 105.064 18.9872 104.404 18.5781C103.743 18.1648 103.279 17.581 103.01 16.8267C102.746 16.0682 102.701 15.1712 102.876 14.1357C103.046 13.1257 103.389 12.2393 103.905 11.4766C104.425 10.7138 105.077 10.1193 105.861 9.69318C106.645 9.26705 107.519 9.05398 108.482 9.05398C109.129 9.05398 109.715 9.15838 110.24 9.36719C110.768 9.57173 111.207 9.88281 111.556 10.3004C111.906 10.7138 112.144 11.2315 112.272 11.8537C112.404 12.4759 112.402 13.2045 112.266 14.0398L112.144 14.7876H103.86L104.122 13.1001H109.85C109.914 12.7081 109.888 12.3608 109.773 12.0582C109.658 11.7557 109.466 11.5192 109.198 11.3487C108.929 11.174 108.599 11.0866 108.207 11.0866C107.806 11.0866 107.431 11.1847 107.082 11.3807C106.732 11.5767 106.438 11.8345 106.2 12.1541C105.965 12.4695 105.814 12.8125 105.746 13.1832L105.445 14.858C105.36 15.3736 105.377 15.8018 105.497 16.1428C105.62 16.4837 105.833 16.7393 106.136 16.9098C106.438 17.076 106.822 17.1591 107.286 17.1591C107.589 17.1591 107.872 17.1165 108.137 17.0312C108.405 16.946 108.644 16.8203 108.852 16.6541C109.061 16.4837 109.232 16.2727 109.364 16.0213L111.85 16.1875C111.62 16.7926 111.271 17.321 110.802 17.7727C110.333 18.2202 109.769 18.5696 109.108 18.821C108.452 19.0682 107.717 19.1918 106.903 19.1918ZM120.088 9.18182L119.749 11.2273H113.83L114.175 9.18182H120.088ZM115.901 6.82955H118.624L117.103 15.983C117.06 16.2344 117.067 16.4304 117.122 16.571C117.178 16.7074 117.269 16.8033 117.397 16.8587C117.529 16.9141 117.687 16.9418 117.87 16.9418C117.998 16.9418 118.128 16.9311 118.26 16.9098C118.392 16.8842 118.492 16.8651 118.56 16.8523L118.663 18.8786C118.509 18.9254 118.303 18.9766 118.043 19.032C117.787 19.0874 117.484 19.1214 117.135 19.1342C116.47 19.1598 115.908 19.0724 115.447 18.8722C114.987 18.6676 114.657 18.3544 114.457 17.9325C114.256 17.5107 114.214 16.9801 114.329 16.3409L115.901 6.82955ZM125.333 5.90909L123.159 19H120.436L122.61 5.90909H125.333ZM129.79 19.1918C128.784 19.1918 127.951 18.9872 127.29 18.5781C126.63 18.1648 126.165 17.581 125.897 16.8267C125.633 16.0682 125.588 15.1712 125.763 14.1357C125.933 13.1257 126.276 12.2393 126.792 11.4766C127.312 10.7138 127.964 10.1193 128.748 9.69318C129.532 9.26705 130.405 9.05398 131.368 9.05398C132.016 9.05398 132.602 9.15838 133.126 9.36719C133.655 9.57173 134.094 9.88281 134.443 10.3004C134.792 10.7138 135.031 11.2315 135.159 11.8537C135.291 12.4759 135.289 13.2045 135.153 14.0398L135.031 14.7876H126.747L127.009 13.1001H132.736C132.8 12.7081 132.775 12.3608 132.66 12.0582C132.545 11.7557 132.353 11.5192 132.084 11.3487C131.816 11.174 131.486 11.0866 131.094 11.0866C130.693 11.0866 130.318 11.1847 129.969 11.3807C129.619 11.5767 129.325 11.8345 129.086 12.1541C128.852 12.4695 128.701 12.8125 128.633 13.1832L128.332 14.858C128.247 15.3736 128.264 15.8018 128.383 16.1428C128.507 16.4837 128.72 16.7393 129.023 16.9098C129.325 17.076 129.709 17.1591 130.173 17.1591C130.476 17.1591 130.759 17.1165 131.023 17.0312C131.292 16.946 131.53 16.8203 131.739 16.6541C131.948 16.4837 132.118 16.2727 132.251 16.0213L134.737 16.1875C134.507 16.7926 134.157 17.321 133.689 17.7727C133.22 18.2202 132.655 18.5696 131.995 18.821C131.339 19.0682 130.604 19.1918 129.79 19.1918Z" fill="#EDEDED"/>
</svg>
