<svg width="167" height="35" viewBox="0 0 167 35" fill="none" xmlns="http://www.w3.org/2000/svg">
<path d="M25.7959 10.582H0C0 6.15976 3.91837 2.5 8.4898 2.5H34.2857C34.2857 6.9222 30.3673 10.582 25.7959 10.582Z" fill="white"/>
<path d="M10.0118 31.05L11.7638 19.0575C12.5081 13.9625 16.8883 10.1779 22.0407 10.1779V10.1779L19.6795 25.7597C18.8769 29.4204 14.6593 31.8434 10.0118 31.05Z" fill="white"/>
<path d="M54.2201 10.15L53.6351 12.6475H48.7526L45.8951 25H42.7901L45.6476 12.6475H40.6976L41.3051 10.15H54.2201ZM57.3759 12.13C56.8359 12.13 56.4084 12.0025 56.0934 11.7475C55.7784 11.4925 55.6434 11.1175 55.6884 10.6225C55.7334 10.0075 55.9284 9.5575 56.2734 9.2725C56.6334 8.9725 57.1059 8.8225 57.6909 8.8225C58.2459 8.8225 58.6809 8.95 58.9959 9.205C59.3109 9.46 59.4459 9.8275 59.4009 10.3075C59.3559 10.9525 59.1534 11.4175 58.7934 11.7025C58.4334 11.9875 57.9609 12.13 57.3759 12.13ZM58.3434 13.75L55.7334 25H52.6509L55.2609 13.75H58.3434ZM63.3686 29.8375C62.7086 29.8375 62.0786 29.7475 61.4786 29.5675C60.8786 29.4025 60.3461 29.155 59.8811 28.825C59.4161 28.495 59.0411 28.0825 58.7561 27.5875C58.4861 27.1075 58.3286 26.545 58.2836 25.9L61.3661 25.405C61.4411 26.125 61.6436 26.6875 61.9736 27.0925C62.3186 27.4975 62.8961 27.7 63.7061 27.7C64.1411 27.7 64.5461 27.61 64.9211 27.43C65.3111 27.25 65.6486 26.95 65.9336 26.53C66.2336 26.11 66.4661 25.525 66.6311 24.775L67.3511 21.5575L67.5986 21.4675C67.3586 22.4875 66.8936 23.29 66.2036 23.875C65.5136 24.445 64.6811 24.73 63.7061 24.73C62.9111 24.73 62.1911 24.5425 61.5461 24.1675C60.9161 23.7775 60.4211 23.2375 60.0611 22.5475C59.7011 21.8425 59.5211 21.04 59.5211 20.14C59.5211 19.225 59.6561 18.37 59.9261 17.575C60.1961 16.78 60.5786 16.0825 61.0736 15.4825C61.5686 14.8675 62.1536 14.3875 62.8286 14.0425C63.5186 13.6975 64.2761 13.525 65.1011 13.525C65.7461 13.525 66.3311 13.66 66.8561 13.93C67.3961 14.2 67.8311 14.605 68.1611 15.145C68.4911 15.67 68.6561 16.3225 68.6561 17.1025L68.2511 17.53L69.1286 13.75H72.2111L69.6686 24.64C69.3686 25.915 68.9261 26.9275 68.3411 27.6775C67.7711 28.4425 67.0661 28.99 66.2261 29.32C65.4011 29.665 64.4486 29.8375 63.3686 29.8375ZM64.9436 22.4125C65.5136 22.4125 66.0161 22.225 66.4511 21.85C66.8861 21.475 67.2311 20.98 67.4861 20.365C67.7411 19.75 67.8686 19.0825 67.8686 18.3625C67.8686 17.8525 67.7786 17.4175 67.5986 17.0575C67.4186 16.6825 67.1636 16.3975 66.8336 16.2025C66.5036 15.9925 66.1136 15.8875 65.6636 15.8875C65.0336 15.8875 64.4861 16.075 64.0211 16.45C63.5711 16.81 63.2186 17.29 62.9636 17.89C62.7086 18.49 62.5811 19.1425 62.5811 19.8475C62.5811 20.5975 62.7836 21.2125 63.1886 21.6925C63.5936 22.1725 64.1786 22.4125 64.9436 22.4125ZM78.7639 25.2025C77.6839 25.2025 76.7389 24.985 75.9289 24.55C75.1339 24.115 74.5114 23.515 74.0614 22.75C73.6264 21.985 73.4089 21.1075 73.4089 20.1175C73.4089 18.8875 73.6564 17.7775 74.1514 16.7875C74.6464 15.7975 75.3589 15.01 76.2889 14.425C77.2189 13.84 78.3364 13.5475 79.6414 13.5475C80.6764 13.5475 81.5539 13.75 82.2739 14.155C83.0089 14.56 83.5639 15.1375 83.9389 15.8875C84.3289 16.6375 84.5239 17.53 84.5239 18.565C84.5239 18.865 84.5089 19.1725 84.4789 19.4875C84.4489 19.7875 84.3889 20.0875 84.2989 20.3875H75.2989V18.25H82.4089L81.4414 18.88C81.5014 18.685 81.5389 18.5125 81.5539 18.3625C81.5689 18.1975 81.5764 18.04 81.5764 17.89C81.5764 17.44 81.4939 17.065 81.3289 16.765C81.1639 16.45 80.9314 16.21 80.6314 16.045C80.3314 15.88 79.9714 15.7975 79.5514 15.7975C78.9364 15.7975 78.4189 15.9325 77.9989 16.2025C77.5939 16.4725 77.2639 16.8325 77.0089 17.2825C76.7689 17.7175 76.5964 18.1975 76.4914 18.7225C76.3864 19.2475 76.3339 19.765 76.3339 20.275C76.3339 20.83 76.4389 21.31 76.6489 21.715C76.8739 22.105 77.1814 22.4125 77.5714 22.6375C77.9614 22.8475 78.4189 22.9525 78.9439 22.9525C79.5589 22.9525 80.0614 22.8175 80.4514 22.5475C80.8414 22.2625 81.1489 21.91 81.3739 21.49L83.8939 22.615C83.6089 23.155 83.2114 23.62 82.7014 24.01C82.2064 24.385 81.6214 24.6775 80.9464 24.8875C80.2864 25.0975 79.5589 25.2025 78.7639 25.2025ZM85.7417 25L88.3517 13.75H91.0292L90.4892 17.2825L90.2867 16.99C90.5267 16.285 90.8492 15.6775 91.2542 15.1675C91.6592 14.6425 92.1392 14.2375 92.6942 13.9525C93.2492 13.6675 93.8492 13.525 94.4942 13.525C94.7492 13.525 94.9592 13.54 95.1242 13.57C95.3042 13.6 95.4617 13.6525 95.5967 13.7275L94.8092 16.405C94.6592 16.33 94.4867 16.27 94.2917 16.225C94.0967 16.18 93.8567 16.1575 93.5717 16.1575C93.0617 16.1575 92.5742 16.2775 92.1092 16.5175C91.6442 16.7425 91.2392 17.095 90.8942 17.575C90.5492 18.055 90.2867 18.685 90.1067 19.465L88.8242 25H85.7417ZM95.1534 25L98.5959 10.15H104.918C106.253 10.15 107.296 10.4575 108.046 11.0725C108.796 11.6875 109.171 12.52 109.171 13.57C109.171 14.305 109.021 14.9575 108.721 15.5275C108.421 16.0975 108.016 16.5625 107.506 16.9225C107.011 17.2675 106.441 17.5075 105.796 17.6425V17.665C106.576 17.755 107.206 18.0625 107.686 18.5875C108.166 19.0975 108.406 19.735 108.406 20.5C108.406 21.49 108.166 22.3225 107.686 22.9975C107.206 23.6575 106.531 24.16 105.661 24.505C104.806 24.835 103.816 25 102.691 25H95.1534ZM98.7309 22.66H102.263C103.223 22.66 103.958 22.465 104.468 22.075C104.978 21.685 105.233 21.1375 105.233 20.4325C105.233 20.0725 105.151 19.7725 104.986 19.5325C104.836 19.2925 104.603 19.1125 104.288 18.9925C103.973 18.8725 103.583 18.8125 103.118 18.8125H99.6309L98.7309 22.66ZM100.171 16.4275H103.276C103.861 16.4275 104.348 16.33 104.738 16.135C105.143 15.94 105.451 15.67 105.661 15.325C105.871 14.98 105.976 14.575 105.976 14.11C105.976 13.555 105.788 13.1575 105.413 12.9175C105.038 12.6775 104.558 12.5575 103.973 12.5575H101.071L100.171 16.4275ZM115.92 25.2025C114.84 25.2025 113.895 24.985 113.085 24.55C112.29 24.115 111.667 23.515 111.217 22.75C110.782 21.985 110.565 21.1075 110.565 20.1175C110.565 18.8875 110.812 17.7775 111.307 16.7875C111.802 15.7975 112.515 15.01 113.445 14.425C114.375 13.84 115.492 13.5475 116.797 13.5475C117.832 13.5475 118.71 13.75 119.43 14.155C120.165 14.56 120.72 15.1375 121.095 15.8875C121.485 16.6375 121.68 17.53 121.68 18.565C121.68 18.865 121.665 19.1725 121.635 19.4875C121.605 19.7875 121.545 20.0875 121.455 20.3875H112.455V18.25H119.565L118.597 18.88C118.657 18.685 118.695 18.5125 118.71 18.3625C118.725 18.1975 118.732 18.04 118.732 17.89C118.732 17.44 118.65 17.065 118.485 16.765C118.32 16.45 118.087 16.21 117.787 16.045C117.487 15.88 117.127 15.7975 116.707 15.7975C116.092 15.7975 115.575 15.9325 115.155 16.2025C114.75 16.4725 114.42 16.8325 114.165 17.2825C113.925 17.7175 113.752 18.1975 113.647 18.7225C113.542 19.2475 113.49 19.765 113.49 20.275C113.49 20.83 113.595 21.31 113.805 21.715C114.03 22.105 114.337 22.4125 114.727 22.6375C115.117 22.8475 115.575 22.9525 116.1 22.9525C116.715 22.9525 117.217 22.8175 117.607 22.5475C117.997 22.2625 118.305 21.91 118.53 21.49L121.05 22.615C120.765 23.155 120.367 23.62 119.857 24.01C119.362 24.385 118.777 24.6775 118.102 24.8875C117.442 25.0975 116.715 25.2025 115.92 25.2025ZM128.862 25.2025C127.782 25.2025 126.837 24.985 126.027 24.55C125.232 24.115 124.609 23.515 124.159 22.75C123.724 21.985 123.507 21.1075 123.507 20.1175C123.507 18.8875 123.754 17.7775 124.249 16.7875C124.744 15.7975 125.457 15.01 126.387 14.425C127.317 13.84 128.434 13.5475 129.739 13.5475C130.774 13.5475 131.652 13.75 132.372 14.155C133.107 14.56 133.662 15.1375 134.037 15.8875C134.427 16.6375 134.622 17.53 134.622 18.565C134.622 18.865 134.607 19.1725 134.577 19.4875C134.547 19.7875 134.487 20.0875 134.397 20.3875H125.397V18.25H132.507L131.539 18.88C131.599 18.685 131.637 18.5125 131.652 18.3625C131.667 18.1975 131.674 18.04 131.674 17.89C131.674 17.44 131.592 17.065 131.427 16.765C131.262 16.45 131.029 16.21 130.729 16.045C130.429 15.88 130.069 15.7975 129.649 15.7975C129.034 15.7975 128.517 15.9325 128.097 16.2025C127.692 16.4725 127.362 16.8325 127.107 17.2825C126.867 17.7175 126.694 18.1975 126.589 18.7225C126.484 19.2475 126.432 19.765 126.432 20.275C126.432 20.83 126.537 21.31 126.747 21.715C126.972 22.105 127.279 22.4125 127.669 22.6375C128.059 22.8475 128.517 22.9525 129.042 22.9525C129.657 22.9525 130.159 22.8175 130.549 22.5475C130.939 22.2625 131.247 21.91 131.472 21.49L133.992 22.615C133.707 23.155 133.309 23.62 132.799 24.01C132.304 24.385 131.719 24.6775 131.044 24.8875C130.384 25.0975 129.657 25.2025 128.862 25.2025ZM140.666 25.2025C139.826 25.2025 139.106 25.045 138.506 24.73C137.906 24.415 137.486 23.9575 137.246 23.3575C137.006 22.7575 136.983 22.015 137.178 21.13L139.428 11.32L142.736 10.42L140.238 21.1075C140.088 21.7375 140.171 22.2025 140.486 22.5025C140.801 22.7875 141.228 22.93 141.768 22.93C142.128 22.93 142.428 22.8925 142.668 22.8175C142.908 22.7425 143.126 22.645 143.321 22.525L143.298 24.6175C142.908 24.8275 142.488 24.9775 142.038 25.0675C141.603 25.1575 141.146 25.2025 140.666 25.2025ZM136.188 16.045L136.728 13.75H145.188L144.648 16.045H136.188ZM148.583 25.18C147.353 25.18 146.49 24.835 145.995 24.145C145.5 23.44 145.388 22.51 145.658 21.355L148.56 8.8225H151.643L148.74 21.355C148.605 21.895 148.635 22.2925 148.83 22.5475C149.04 22.8025 149.4 22.93 149.91 22.93C150.105 22.93 150.278 22.9225 150.428 22.9075C150.578 22.8925 150.705 22.87 150.81 22.84L150.225 24.9325C149.985 25.0225 149.738 25.0825 149.483 25.1125C149.228 25.1575 148.928 25.18 148.583 25.18ZM157.953 25.2025C156.873 25.2025 155.928 24.985 155.118 24.55C154.323 24.115 153.701 23.515 153.251 22.75C152.816 21.985 152.598 21.1075 152.598 20.1175C152.598 18.8875 152.846 17.7775 153.341 16.7875C153.836 15.7975 154.548 15.01 155.478 14.425C156.408 13.84 157.526 13.5475 158.831 13.5475C159.866 13.5475 160.743 13.75 161.463 14.155C162.198 14.56 162.753 15.1375 163.128 15.8875C163.518 16.6375 163.713 17.53 163.713 18.565C163.713 18.865 163.698 19.1725 163.668 19.4875C163.638 19.7875 163.578 20.0875 163.488 20.3875H154.488V18.25H161.598L160.631 18.88C160.691 18.685 160.728 18.5125 160.743 18.3625C160.758 18.1975 160.766 18.04 160.766 17.89C160.766 17.44 160.683 17.065 160.518 16.765C160.353 16.45 160.121 16.21 159.821 16.045C159.521 15.88 159.161 15.7975 158.741 15.7975C158.126 15.7975 157.608 15.9325 157.188 16.2025C156.783 16.4725 156.453 16.8325 156.198 17.2825C155.958 17.7175 155.786 18.1975 155.681 18.7225C155.576 19.2475 155.523 19.765 155.523 20.275C155.523 20.83 155.628 21.31 155.838 21.715C156.063 22.105 156.371 22.4125 156.761 22.6375C157.151 22.8475 157.608 22.9525 158.133 22.9525C158.748 22.9525 159.251 22.8175 159.641 22.5475C160.031 22.2625 160.338 21.91 160.563 21.49L163.083 22.615C162.798 23.155 162.401 23.62 161.891 24.01C161.396 24.385 160.811 24.6775 160.136 24.8875C159.476 25.0975 158.748 25.2025 157.953 25.2025Z" fill="white"/>
</svg>
